<?xml version="1.0" encoding="UTF-8"?>
<svg id="_Слой_2" data-name="Слой 2" xmlns="http://www.w3.org/2000/svg" width="1920" height="11549.43" xmlns:xlink="http://www.w3.org/1999/xlink" viewBox="0 0 1920 11549.43">
  <defs>
    <pattern id="_Новый_узор" data-name="Новый узор" x="0" y="0" width="1119.89" height="1134.86" patternTransform="translate(1940 6612.99)" patternUnits="userSpaceOnUse" viewBox="0 0 1119.89 1134.86">
      <g>
        <rect x="0" y="0" width="1119.89" height="1134.86" style="fill: none;"/>
        <path d="m720.98,156.55c5.25,1.88,9.42,6.81,11.07,13.09,1.66-6.28,5.82-11.21,11.07-13.09-5.25-1.88-9.42-6.81-11.07-13.09-1.66,6.28-5.82,11.21-11.07,13.09Z" style="fill: #2059cc;"/>
        <path d="m1039.41,218.58c5.25,1.88,9.42,6.81,11.07,13.09,1.66-6.28,5.82-11.21,11.07-13.09-5.25-1.88-9.42-6.81-11.07-13.09-1.66,6.28-5.82,11.21-11.07,13.09Z" style="fill: #2059cc;"/>
        <path d="m956.08,526.71c5.25,1.88,9.42,6.81,11.07,13.09,1.66-6.28,5.82-11.21,11.07-13.09-5.25-1.88-9.42-6.81-11.07-13.09-1.66,6.28-5.82,11.21-11.07,13.09Z" style="fill: #2059cc;"/>
        <path d="m845.98,678.05c4.75,1.7,8.51,6.15,10,11.82,1.49-5.67,5.25-10.12,10-11.82-4.75-1.7-8.51-6.15-10-11.82-1.49,5.67-5.25,10.12-10,11.82Z" style="fill: #2059cc;"/>
        <path d="m1051.56,1018.53c4.75,1.7,8.51,6.15,10,11.82,1.49-5.67,5.25-10.12,10-11.82-4.75-1.7-8.51-6.15-10-11.82-1.49,5.67-5.25,10.12-10,11.82Z" style="fill: #2059cc;"/>
        <path d="m481.98,271.79c3.44,1.23,6.16,4.45,7.24,8.56,1.08-4.11,3.81-7.33,7.24-8.56-3.44-1.23-6.16-4.45-7.24-8.56-1.08,4.11-3.81,7.33-7.24,8.56Z" style="fill: #2059cc;"/>
        <path d="m167.58,41.52c3.44,1.23,6.16,4.45,7.24,8.56,1.08-4.11,3.81-7.33,7.24-8.56-3.44-1.23-6.16-4.45-7.24-8.56-1.08,4.11-3.81,7.33-7.24,8.56Z" style="fill: #2059cc;"/>
        <path d="m44.72,535.27c3.44,1.23,6.16,4.45,7.24,8.56,1.08-4.11,3.81-7.33,7.24-8.56-3.44-1.23-6.16-4.45-7.24-8.56-1.08,4.11-3.81,7.33-7.24,8.56Z" style="fill: #2059cc;"/>
        <path d="m535.86,586.01c3.44,1.23,6.16,4.45,7.24,8.56,1.08-4.11,3.81-7.33,7.24-8.56-3.44-1.23-6.16-4.45-7.24-8.56-1.08,4.11-3.81,7.33-7.24,8.56Z" style="fill: #2059cc;"/>
        <path d="m315.31,147.93c5.25,1.88,9.42,6.81,11.07,13.09,1.66-6.28,5.82-11.21,11.07-13.09-5.25-1.88-9.42-6.81-11.07-13.09-1.66,6.28-5.82,11.21-11.07,13.09Z" style="fill: #2059cc;"/>
        <path d="m737.06,572.92c5.25,1.88,9.42,6.81,11.07,13.09,1.66-6.28,5.82-11.21,11.07-13.09-5.25-1.88-9.42-6.81-11.07-13.09-1.66,6.28-5.82,11.21-11.07,13.09Z" style="fill: #2059cc;"/>
        <path d="m221.01,769.5c5.25,1.88,9.42,6.81,11.07,13.09,1.66-6.28,5.82-11.21,11.07-13.09-5.25-1.88-9.42-6.81-11.07-13.09-1.66,6.28-5.82,11.21-11.07,13.09Z" style="fill: #2059cc;"/>
        <path d="m364.73,1057.35c5.25,1.88,9.42,6.81,11.07,13.09,1.66-6.28,5.82-11.21,11.07-13.09-5.25-1.88-9.42-6.81-11.07-13.09-1.66,6.28-5.82,11.21-11.07,13.09Z" style="fill: #2059cc;"/>
        <path d="m661.72,348.12c5.25,1.88,9.42,6.81,11.07,13.09,1.66-6.28,5.82-11.21,11.07-13.09-5.25-1.88-9.42-6.81-11.07-13.09-1.66,6.28-5.82,11.21-11.07,13.09Z" style="fill: #2059cc;"/>
        <path d="m273.32,422.52c5.25,1.88,9.42,6.81,11.07,13.09,1.66-6.28,5.82-11.21,11.07-13.09-5.25-1.88-9.42-6.81-11.07-13.09-1.66,6.28-5.82,11.21-11.07,13.09Z" style="fill: #2059cc;"/>
        <path d="m1061.56,393.75c3.44,1.23,6.16,4.45,7.24,8.56,1.08-4.11,3.81-7.33,7.24-8.56-3.44-1.23-6.16-4.45-7.24-8.56-1.08,4.11-3.81,7.33-7.24,8.56Z" style="fill: #2059cc;"/>
        <path d="m886.3,126.28c3.44,1.23,6.16,4.45,7.24,8.56,1.08-4.11,3.81-7.33,7.24-8.56-3.44-1.23-6.16-4.45-7.24-8.56-1.08,4.11-3.81,7.33-7.24,8.56Z" style="fill: #2059cc;"/>
        <path d="m1101.57,58.65c3.44,1.23,6.16,4.45,7.24,8.56,1.08-4.11,3.81-7.33,7.24-8.56-3.44-1.23-6.16-4.45-7.24-8.56-1.08,4.11-3.81,7.33-7.24,8.56Z" style="fill: #2059cc;"/>
        <path d="m575.06,8.56c3.44,1.23,6.16,4.45,7.24,8.56,1.08-4.11,3.81-7.33,7.24-8.56-3.44-1.23-6.16-4.45-7.24-8.56-1.08,4.11-3.81,7.33-7.24,8.56Z" style="fill: #2059cc;"/>
        <path d="m624.49,922.74c3.44,1.23,6.16,4.45,7.24,8.56,1.08-4.11,3.81-7.33,7.24-8.56-3.44-1.23-6.16-4.45-7.24-8.56-1.08,4.11-3.81,7.33-7.24,8.56Z" style="fill: #2059cc;"/>
        <path d="m959.92,1126.3c3.44,1.23,6.16,4.45,7.24,8.56,1.08-4.11,3.81-7.33,7.24-8.56-3.44-1.23-6.16-4.45-7.24-8.56-1.08,4.11-3.81,7.33-7.24,8.56Z" style="fill: #2059cc;"/>
        <path d="m879.06,914.17c3.44,1.23,6.16,4.45,7.24,8.56,1.08-4.11,3.81-7.33,7.24-8.56-3.44-1.23-6.16-4.45-7.24-8.56-1.08,4.11-3.81,7.33-7.24,8.56Z" style="fill: #2059cc;"/>
        <path d="m848.74,372.61c3.44,1.23,6.16,4.45,7.24,8.56,1.08-4.11,3.81-7.33,7.24-8.56-3.44-1.23-6.16-4.45-7.24-8.56-1.08,4.11-3.81,7.33-7.24,8.56Z" style="fill: #2059cc;"/>
        <path d="m593.98,727.16c3.44,1.23,6.16,4.45,7.24,8.56,1.08-4.11,3.81-7.33,7.24-8.56-3.44-1.23-6.16-4.45-7.24-8.56-1.08,4.11-3.81,7.33-7.24,8.56Z" style="fill: #2059cc;"/>
        <path d="m0,809.44c3.44,1.23,6.16,4.45,7.24,8.56,1.08-4.11,3.81-7.33,7.24-8.56-3.44-1.23-6.16-4.45-7.24-8.56-1.08,4.11-3.81,7.33-7.24,8.56Z" style="fill: #2059cc;"/>
        <path d="m319.14,603.13c3.44,1.23,6.16,4.45,7.24,8.56,1.08-4.11,3.81-7.33,7.24-8.56-3.44-1.23-6.16-4.45-7.24-8.56-1.08,4.11-3.81,7.33-7.24,8.56Z" style="fill: #2059cc;"/>
        <path d="m427.1,887.28c5.25,1.88,9.42,6.81,11.07,13.09,1.66-6.28,5.82-11.21,11.07-13.09-5.25-1.88-9.42-6.81-11.07-13.09-1.66,6.28-5.82,11.21-11.07,13.09Z" style="fill: #2059cc;"/>
        <path d="m779.31,1104.65c5.25,1.88,9.42,6.81,11.07,13.09,1.66-6.28,5.82-11.21,11.07-13.09-5.25-1.88-9.42-6.81-11.07-13.09-1.66,6.28-5.82,11.21-11.07,13.09Z" style="fill: #2059cc;"/>
        <path d="m1097.74,689.87c5.25,1.88,9.42,6.81,11.07,13.09,1.66-6.28,5.82-11.21,11.07-13.09-5.25-1.88-9.42-6.81-11.07-13.09-1.66,6.28-5.82,11.21-11.07,13.09Z" style="fill: #2059cc;"/>
        <path d="m89.4,271.79c3.44,1.23,6.16,4.45,7.24,8.56,1.08-4.11,3.81-7.33,7.24-8.56-3.44-1.23-6.16-4.45-7.24-8.56-1.08,4.11-3.81,7.33-7.24,8.56Z" style="fill: #2059cc;"/>
        <path d="m116.35,993.63c5.25,1.88,9.42,6.81,11.07,13.09,1.66-6.28,5.82-11.21,11.07-13.09-5.25-1.88-9.42-6.81-11.07-13.09-1.66,6.28-5.82,11.21-11.07,13.09Z" style="fill: #2059cc;"/>
      </g>
    </pattern>
  </defs>
  <g id="_Слой_1-2" data-name="Слой 1">
    <rect width="1920" height="11549.43" style="fill: url(#_Новый_узор); opacity: .3;"/>
  </g>
</svg>