<svg width="158" height="135" viewBox="0 0 158 135" fill="none" xmlns="http://www.w3.org/2000/svg">
<path fill-rule="evenodd" clip-rule="evenodd" d="M111.079 16.7903C111.319 15.3703 112.659 14.4302 114.069 14.6702C115.489 14.9102 116.429 16.2404 116.189 17.6604C115.949 19.0804 114.609 20.0205 113.199 19.7805C111.779 19.5405 110.839 18.1903 111.079 16.7903ZM112.159 16.51C112.069 17.09 112.439 17.6307 113.019 17.7307C113.599 17.8207 114.129 17.4504 114.239 16.8704C114.329 16.2904 113.959 15.7507 113.379 15.6507C112.799 15.5607 112.259 15.94 112.159 16.51Z" fill="#CDE9FB"/>
<path fill-rule="evenodd" clip-rule="evenodd" d="M132.78 14.6396C129.76 15.9296 126.99 17.1699 125.76 17.8799C122.43 19.8199 118.73 23.8796 117.93 27.3496C116.96 31.5296 117.26 34.3703 117.6 37.5303C117.86 39.9503 118.13 42.5501 117.87 46.0801C116.99 58.0901 101 72.1602 94.7697 77.2002C91.0697 84.1302 85.7397 89.8898 80.2397 95.8398C70.8897 105.94 61.0397 116.6 57.7397 134.51C59.7797 121.56 61.9597 111.22 65.3997 102.24C65.4297 94.6902 66.8797 85.9801 69.7397 78.1201C61.5097 80.1301 52.5497 78.63 47.5797 77.79C46.6997 77.64 45.9397 77.5197 45.3397 77.4297C56.7997 73.8197 64.4197 69.0497 70.5997 65.1797C71.2597 64.7597 71.9097 64.3597 72.5497 63.9697C65.3197 65.2697 60.4297 65.3696 54.9597 64.0596C58.2197 62.0696 60.9497 60.42 63.3697 59.04H63.3497C61.2097 59.32 59.1097 59.46 57.0497 59.46C38.4997 59.46 23.4297 48.2703 6.89973 31.0303C14.4697 37.2203 25.0097 40.3898 36.0797 42.2598H36.0997C22.4697 33.9698 11.1397 20.89 0.719727 4.20996C11.7697 17.86 32.0697 25.1505 51.2597 30.7305C45.1297 22.6805 40.6497 12.51 37.2597 0.709961C43.2297 14.76 59.9797 24.6902 74.0097 32.9902C80.2297 36.6702 85.9097 40.0398 89.8697 43.2998L89.9997 43.3604C92.2697 41.1804 96.5997 36.5601 99.4997 30.6201C100.67 28.2201 101.14 25.6198 101.6 23.0898C102.34 18.9598 103.06 15.0099 106.74 12.3799C108.58 11.0699 110.54 10.6104 112.53 10.6104C115.03 10.6104 117.59 11.34 120.08 12.04C122.04 12.6 123.95 13.1398 125.75 13.2998C126.15 13.3298 126.58 13.3496 127.03 13.3496C128.21 13.3496 129.53 13.2298 130.9 13.0498C125.21 8.5898 118.26 5.90984 110.82 3.08984C118.83 4.06984 127.13 6.65977 133.16 12.2598C133.22 12.3198 133.27 12.3804 133.33 12.4404C133.38 12.5004 133.44 12.5601 133.5 12.6201C138.75 11.6401 143.91 10.04 143.91 10.04C143.91 10.04 139.28 11.8801 134.62 13.8301C135.44 14.7601 136.21 15.7598 136.92 16.7998C139.78 16.2398 142.88 17.3601 145.16 19.0801L145.32 19.21C146.14 19.87 147.06 20.6002 147.32 21.6602C146.98 21.3702 146.58 21.1995 146.19 21.0195C146.1 20.9795 146.01 20.9404 145.93 20.9004C143.16 19.7004 140.43 18.5604 137.5 17.6904C138.87 19.9304 139.9 22.3502 140.33 24.9102C138.34 20.6402 135.77 17.3204 132.77 14.6104L132.78 14.6396ZM44.3197 14.4297C46.8397 20.2397 49.6897 25.2205 52.9397 29.4805C53.5397 30.2705 54.1597 31.0198 54.7797 31.7598C57.1097 32.4198 59.4097 33.0604 61.6597 33.6904C68.4697 35.5804 74.8597 37.3598 80.3097 39.2598C78.1397 37.9098 75.8097 36.5304 73.4197 35.1104L72.8897 34.7998C63.4097 29.1798 52.3697 22.6504 44.3097 14.4404L44.3197 14.4297ZM63.0797 56.9902L63.2297 56.9697C65.4397 56.6797 67.6797 56.2201 69.9897 55.6201C72.2997 54.5701 74.4897 53.7601 76.9297 53.0801L76.7797 53.0498L76.6097 53.0098C76.4097 52.9698 76.2097 52.9199 76.0097 52.8799C62.9397 53.5299 51.6697 50.9502 41.4097 45.4502C39.4297 45.0302 38.1197 44.7597 37.8597 44.7197C37.1897 44.6197 36.5297 44.5096 35.8697 44.3896L35.7497 44.3701C29.4897 43.3201 24.0797 41.9695 19.3997 40.2695C30.4297 49.9995 42.6697 57.4004 57.0597 57.4004C59.0197 57.4004 61.0597 57.26 63.0797 57V56.9902ZM87.3197 58.9102C85.1697 69.7202 79.1697 75.0202 72.2697 77.4102C69.8597 83.5602 68.3697 90.3704 67.8097 96.6904C67.8197 96.6704 67.8297 96.6596 67.8397 96.6396C67.8497 96.6196 67.8597 96.5998 67.8697 96.5898V96.5703L67.8997 96.5L67.9797 96.3398C68.0597 96.1898 68.1297 96.0404 68.1997 95.9004C68.2997 95.6804 68.4097 95.47 68.5197 95.25L68.6297 95.0303C68.7697 94.7403 68.9297 94.4502 69.0797 94.1602C69.1397 94.0502 69.1997 93.9303 69.2597 93.8203C69.3897 93.5903 69.5097 93.3504 69.6397 93.1104C69.9697 92.5104 70.3097 91.9101 70.6597 91.3301C70.7397 91.2001 70.8197 91.0704 70.8997 90.9404L71.0097 90.7598C71.0497 90.6898 71.0897 90.6196 71.1297 90.5596L71.2397 90.3799C71.4197 90.0799 71.5997 89.7805 71.7897 89.4805C71.8797 89.3405 71.9697 89.1996 72.0597 89.0596C72.1497 88.9196 72.2397 88.7796 72.3297 88.6396C72.5497 88.2996 72.7697 87.9699 72.9997 87.6299C73.1897 87.3499 73.3797 87.06 73.5797 86.79C73.6497 86.69 73.7197 86.6 73.7897 86.5C73.9597 86.26 74.1297 86.0203 74.3097 85.7803C74.3997 85.6503 74.4997 85.5196 74.5897 85.3896C74.6797 85.2596 74.7797 85.13 74.8697 85C75.1497 84.63 75.4397 84.2596 75.7197 83.8896L75.8697 83.6904C75.9997 83.5104 76.1497 83.3402 76.2897 83.1602C76.3797 83.0502 76.4697 82.9303 76.5597 82.8203C76.9097 82.3903 77.2497 81.96 77.6097 81.54C77.8197 81.29 78.0397 81.0403 78.2597 80.7803C78.5397 80.4403 78.8397 80.1095 79.1397 79.7695C79.3697 79.5095 79.6097 79.2505 79.8497 78.9805C80.1397 78.6505 80.4497 78.33 80.7597 78C80.9197 77.82 81.0897 77.6505 81.2597 77.4805C81.3397 77.3905 81.4297 77.3097 81.5097 77.2197C81.8497 76.8697 82.1897 76.5297 82.5397 76.1797C82.6197 76.0997 82.6897 76.0302 82.7697 75.9502C82.9297 75.7902 83.0797 75.6305 83.2397 75.4805L83.2697 75.4502C83.8297 74.9102 84.3897 74.3703 84.9797 73.8203C85.1197 73.6803 85.2697 73.5499 85.4197 73.4199L85.5297 73.3203L85.6597 73.21C86.0297 72.87 86.3997 72.5304 86.7797 72.1904L86.8997 72.0801C87.0697 71.9201 87.2397 71.7701 87.4197 71.6201C87.5397 71.5101 87.6597 71.4098 87.7797 71.2998C87.8997 71.1998 88.0097 71.1 88.1197 71C88.2297 70.9 88.3497 70.8002 88.4597 70.7002C89.4497 67.1402 90.2497 62.9595 90.9197 57.7695C89.6497 58.0095 88.4497 58.4102 87.2897 58.9102H87.3197ZM115.51 37.7695C115.16 34.5095 114.84 31.4196 115.89 26.8896C116.88 22.6196 121.17 18.1398 124.7 16.0898C125.01 15.8998 125.41 15.6902 125.9 15.4502L125.56 15.4199C123.57 15.2299 121.51 14.6498 119.52 14.0898L119.47 14.0703C117.15 13.4103 114.73 12.7305 112.55 12.7305C110.76 12.7305 109.3 13.1701 107.97 14.1201C104.99 16.2401 104.39 19.5802 103.69 23.4502L103.67 23.54C103.19 26.19 102.69 28.9301 101.4 31.5801C98.5097 37.4901 94.3397 42.0995 91.8697 44.5195C94.2297 46.0495 95.9497 47.7404 96.8797 49.6504H96.8897C96.8897 49.6504 96.8797 49.6599 96.8797 49.6699C96.8797 49.6699 96.8831 49.673 96.8897 49.6797H96.8797C96.6897 50.0097 94.5597 52.6798 91.1997 55.5898L93.3997 55.1699L93.0297 58.04C92.5297 62.02 91.9297 65.4202 91.2497 68.4102C93.7897 66.3402 96.5297 64.2398 99.5097 62.0898C99.0697 65.9698 98.1497 69.4702 96.8697 72.7002C103.96 66.5002 115.09 55.3504 115.78 45.9404C116.03 42.6004 115.78 40.1503 115.52 37.7803V37.7598L115.51 37.7695Z" fill="#CDE9FB"/>
<path d="M129.17 29.1904C127.75 29.3504 126.74 30.6202 126.89 32.0302C127.05 33.4502 128.32 34.4695 129.73 34.3095C131.15 34.1495 132.16 32.8797 132.01 31.4697C131.85 30.0497 130.58 29.0304 129.17 29.1904Z" fill="#CDE9FB"/>
<path d="M136.089 28.1903C136.229 29.4103 135.339 30.4995 134.129 30.6395C132.909 30.7795 131.809 29.8895 131.689 28.6795C131.549 27.4595 132.439 26.3703 133.649 26.2303C134.869 26.0903 135.959 26.9803 136.089 28.1903Z" fill="#CDE9FB"/>
<path d="M140.91 26.2301C138.91 26.4501 137.47 28.2594 137.69 30.2594C137.91 32.2594 139.72 33.7001 141.72 33.4801C143.72 33.2601 145.16 31.4498 144.94 29.4498C144.71 27.4598 142.9 26.0101 140.91 26.2301Z" fill="#CDE9FB"/>
<path d="M138.35 36.5802C138.21 35.3602 139.09 34.27 140.31 34.13C141.53 33.99 142.63 34.86 142.75 36.09C142.89 37.31 142 38.4002 140.79 38.5402C139.57 38.6802 138.48 37.7902 138.35 36.5802Z" fill="#CDE9FB"/>
<path d="M127.34 34.9693C126.33 35.0893 125.61 35.9896 125.72 36.9996C125.84 38.0096 126.74 38.7297 127.75 38.6197C128.76 38.5097 129.48 37.5995 129.37 36.5895C129.25 35.5795 128.35 34.8693 127.34 34.9693Z" fill="#CDE9FB"/>
<path d="M125.47 32.7302C126.07 32.6702 126.61 33.0999 126.68 33.6999C126.74 34.2999 126.31 34.8399 125.71 34.9099C125.11 34.9699 124.57 34.5402 124.5 33.9402C124.44 33.3402 124.87 32.8002 125.47 32.7302Z" fill="#CDE9FB"/>
<path d="M125.18 28.9409C125.25 29.5709 125.82 30.0204 126.45 29.9604C127.08 29.8904 127.53 29.3209 127.47 28.6909C127.4 28.0609 126.83 27.6104 126.2 27.6704C125.57 27.7404 125.11 28.3109 125.18 28.9409Z" fill="#CDE9FB"/>
<path d="M129.93 36.2101C129.87 35.6501 130.27 35.1499 130.82 35.0899C131.38 35.0299 131.88 35.4306 131.94 35.9806C132 36.5406 131.6 37.0397 131.05 37.0997C130.49 37.1597 129.99 36.7601 129.93 36.2101Z" fill="#CDE9FB"/>
<path d="M146.09 32.5596C144.48 32.7396 143.33 34.1903 143.51 35.7803C143.69 37.3903 145.14 38.5403 146.73 38.3603C148.33 38.1803 149.49 36.7296 149.31 35.1396C149.13 33.5296 147.68 32.3796 146.09 32.5596Z" fill="#CDE9FB"/>
<path d="M149.14 29.1198C150.1 28.9998 150.97 29.6999 151.07 30.6599C151.19 31.6299 150.48 32.4896 149.53 32.5896C148.58 32.7096 147.7 32.0095 147.6 31.0495C147.48 30.0895 148.19 29.2298 149.14 29.1198Z" fill="#CDE9FB"/>
<path d="M152.409 31.9997C151.519 32.0897 150.889 32.8999 150.979 33.7799C151.069 34.6699 151.879 35.2996 152.759 35.2096C153.649 35.1196 154.279 34.3093 154.189 33.4293C154.099 32.5493 153.289 31.9097 152.409 31.9997Z" fill="#CDE9FB"/>
<path d="M153.87 22.7697C153.97 23.6897 153.3 24.52 152.38 24.63C151.46 24.72 150.62 24.0598 150.52 23.1398C150.42 22.2198 151.09 21.3904 152.01 21.2804C152.93 21.1804 153.76 21.8497 153.87 22.7697Z" fill="#CDE9FB"/>
<path d="M152.249 25.6C151.239 25.72 150.519 26.6202 150.629 27.6302C150.749 28.6402 151.649 29.3604 152.659 29.2504C153.669 29.1304 154.389 28.2301 154.279 27.2201C154.159 26.2101 153.259 25.49 152.249 25.6Z" fill="#CDE9FB"/>
<path d="M155.42 23.8892C156.13 23.8192 156.77 24.3296 156.86 25.0396C156.94 25.7496 156.43 26.4001 155.71 26.4801C155 26.5501 154.36 26.0397 154.27 25.3297C154.2 24.6197 154.71 23.9692 155.42 23.8892Z" fill="#CDE9FB"/>
<path d="M156.51 27.2194C156.01 27.2694 155.64 27.7299 155.69 28.2399C155.74 28.7399 156.2 29.1092 156.71 29.0592C157.21 29.0092 157.58 28.5497 157.53 28.0397C157.47 27.5397 157.02 27.1694 156.51 27.2194Z" fill="#CDE9FB"/>
<path d="M132.419 34.4199C132.239 32.8199 133.359 31.3897 134.919 31.2197C136.479 31.0497 137.879 32.2097 138.059 33.7997C138.239 35.3997 137.119 36.8299 135.559 36.9999C134.009 37.1699 132.599 36.0099 132.419 34.4199Z" fill="#CDE9FB"/>
<path d="M144.64 26.2997C144.8 27.7197 146.07 28.74 147.48 28.58C148.9 28.42 149.91 27.1502 149.76 25.7402C149.6 24.3202 148.33 23.2999 146.92 23.4599C145.51 23.6199 144.5 24.8897 144.64 26.2997Z" fill="#CDE9FB"/>
<path d="M130.879 25.6104C130.419 26.2304 129.959 26.8801 129.449 27.5401C129.109 23.8501 131.949 19.9099 135.829 19.9199C133.699 21.7499 132.349 23.5904 130.879 25.6104Z" fill="#CDE9FB"/>
</svg>
