<?xml version="1.0" encoding="UTF-8"?>
<svg id="_Слой_2" data-name="Слой 2" xmlns="http://www.w3.org/2000/svg" xmlns:xlink="http://www.w3.org/1999/xlink" viewBox="0 0 505.63 439.46">
  <defs>
    <style>
      .cls-1, .cls-2, .cls-3, .cls-4, .cls-5, .cls-6, .cls-7, .cls-8 {
        fill: none;
      }

      .cls-2 {
        clip-path: url(#clippath-6);
      }

      .cls-3 {
        clip-path: url(#clippath-5);
      }

      .cls-4 {
        clip-path: url(#clippath-3);
      }

      .cls-5 {
        clip-path: url(#clippath-4);
      }

      .cls-6 {
        clip-path: url(#clippath-2);
      }

      .cls-7 {
        clip-path: url(#clippath-1);
      }

      .cls-9 {
        fill: #fff;
      }

      .cls-10 {
        fill: #cde9fb;
      }

      .cls-11 {
        fill: #85d3ff;
      }

      .cls-12 {
        fill: url(#_Новый_образец_градиента_3-18);
      }

      .cls-13 {
        fill: url(#_Новый_образец_градиента_3-13);
      }

      .cls-14 {
        fill: url(#_Новый_образец_градиента_3-19);
      }

      .cls-15 {
        fill: url(#_Новый_образец_градиента_3-15);
      }

      .cls-16 {
        fill: url(#_Новый_образец_градиента_3-12);
      }

      .cls-17 {
        fill: url(#_Новый_образец_градиента_3-17);
      }

      .cls-18 {
        fill: url(#_Новый_образец_градиента_3-10);
      }

      .cls-19 {
        fill: url(#_Новый_образец_градиента_3-16);
      }

      .cls-20 {
        fill: url(#_Новый_образец_градиента_3-14);
      }

      .cls-21 {
        fill: url(#_Новый_образец_градиента_3-11);
      }

      .cls-22 {
        fill: url(#_Новый_образец_градиента_3);
      }

      .cls-23 {
        fill: url(#_Новый_образец_градиента_4);
      }

      .cls-24 {
        fill: url(#_Безымянный_градиент_2-3);
      }

      .cls-25 {
        fill: url(#_Безымянный_градиент_2-4);
      }

      .cls-26 {
        fill: url(#_Безымянный_градиент_2-2);
      }

      .cls-27 {
        fill: url(#_Безымянный_градиент_2-5);
      }

      .cls-28 {
        fill: url(#_Безымянный_градиент_2-6);
      }

      .cls-29 {
        fill: url(#_Безымянный_градиент_2-9);
      }

      .cls-30 {
        fill: url(#_Безымянный_градиент_2-7);
      }

      .cls-31 {
        fill: url(#_Безымянный_градиент_2-8);
      }

      .cls-32 {
        fill: url(#_Безымянный_градиент_2-15);
      }

      .cls-33 {
        fill: url(#_Безымянный_градиент_2-11);
      }

      .cls-34 {
        fill: url(#_Безымянный_градиент_2-14);
      }

      .cls-35 {
        fill: url(#_Безымянный_градиент_2-12);
      }

      .cls-36 {
        fill: url(#_Безымянный_градиент_2-16);
      }

      .cls-37 {
        fill: url(#_Безымянный_градиент_2-10);
      }

      .cls-38 {
        fill: url(#_Безымянный_градиент_2-13);
      }

      .cls-39 {
        fill: url(#_Новый_образец_градиента_3-2);
      }

      .cls-40 {
        fill: url(#_Новый_образец_градиента_3-4);
      }

      .cls-41 {
        fill: url(#_Новый_образец_градиента_3-3);
      }

      .cls-42 {
        fill: url(#_Новый_образец_градиента_3-9);
      }

      .cls-43 {
        fill: url(#_Новый_образец_градиента_3-8);
      }

      .cls-44 {
        fill: url(#_Новый_образец_градиента_3-6);
      }

      .cls-45 {
        fill: url(#_Новый_образец_градиента_3-7);
      }

      .cls-46 {
        fill: url(#_Новый_образец_градиента_3-5);
      }

      .cls-47 {
        fill: url(#_Новый_образец_градиента_4-5);
      }

      .cls-48 {
        fill: url(#_Новый_образец_градиента_4-4);
      }

      .cls-49 {
        fill: url(#_Новый_образец_градиента_4-3);
      }

      .cls-50 {
        fill: url(#_Новый_образец_градиента_4-2);
      }

      .cls-51 {
        fill: url(#_Безымянный_градиент_2);
      }

      .cls-8 {
        clip-path: url(#clippath);
      }
    </style>
    <linearGradient id="_Новый_образец_градиента_3" data-name="Новый образец градиента 3" x1="256.57" y1="234.95" x2="339" y2="147.85" gradientUnits="userSpaceOnUse">
      <stop offset="0" stop-color="#c1272d"/>
      <stop offset="1" stop-color="#ed1c24"/>
    </linearGradient>
    <linearGradient id="_Новый_образец_градиента_3-2" data-name="Новый образец градиента 3" x1="265.61" y1="243.51" x2="348.05" y2="156.41" xlink:href="#_Новый_образец_градиента_3"/>
    <linearGradient id="_Новый_образец_градиента_3-3" data-name="Новый образец градиента 3" x1="273.28" y1="250.77" x2="355.71" y2="163.67" xlink:href="#_Новый_образец_градиента_3"/>
    <linearGradient id="_Новый_образец_градиента_3-4" data-name="Новый образец градиента 3" x1="269.57" y1="247.26" x2="352" y2="160.15" xlink:href="#_Новый_образец_градиента_3"/>
    <linearGradient id="_Новый_образец_градиента_3-5" data-name="Новый образец градиента 3" x1="273.77" y1="251.24" x2="356.21" y2="164.14" xlink:href="#_Новый_образец_градиента_3"/>
    <linearGradient id="_Новый_образец_градиента_3-6" data-name="Новый образец градиента 3" x1="282.67" y1="259.66" x2="365.11" y2="172.56" xlink:href="#_Новый_образец_градиента_3"/>
    <linearGradient id="_Новый_образец_градиента_3-7" data-name="Новый образец градиента 3" x1="287.37" y1="264.1" x2="369.8" y2="177" xlink:href="#_Новый_образец_градиента_3"/>
    <linearGradient id="_Новый_образец_градиента_3-8" data-name="Новый образец градиента 3" x1="275.34" y1="252.72" x2="357.77" y2="165.62" xlink:href="#_Новый_образец_градиента_3"/>
    <linearGradient id="_Новый_образец_градиента_3-9" data-name="Новый образец градиента 3" x1="282.83" y1="259.81" x2="365.27" y2="172.71" xlink:href="#_Новый_образец_градиента_3"/>
    <linearGradient id="_Новый_образец_градиента_3-10" data-name="Новый образец градиента 3" x1="287.67" y1="264.39" x2="370.11" y2="177.29" xlink:href="#_Новый_образец_градиента_3"/>
    <linearGradient id="_Новый_образец_градиента_3-11" data-name="Новый образец градиента 3" x1="293.17" y1="269.6" x2="375.61" y2="182.49" xlink:href="#_Новый_образец_градиента_3"/>
    <linearGradient id="_Новый_образец_градиента_3-12" data-name="Новый образец градиента 3" x1="292.41" y1="268.88" x2="374.85" y2="181.77" xlink:href="#_Новый_образец_градиента_3"/>
    <linearGradient id="_Новый_образец_градиента_3-13" data-name="Новый образец градиента 3" x1="299.16" y1="275.26" x2="381.59" y2="188.16" xlink:href="#_Новый_образец_градиента_3"/>
    <linearGradient id="_Новый_образец_градиента_3-14" data-name="Новый образец градиента 3" x1="290.42" y1="266.99" x2="372.85" y2="179.89" xlink:href="#_Новый_образец_градиента_3"/>
    <linearGradient id="_Новый_образец_градиента_3-15" data-name="Новый образец градиента 3" x1="295.54" y1="271.84" x2="377.98" y2="184.74" xlink:href="#_Новый_образец_градиента_3"/>
    <linearGradient id="_Новый_образец_градиента_3-16" data-name="Новый образец градиента 3" x1="279.71" y1="256.85" x2="362.14" y2="169.75" xlink:href="#_Новый_образец_градиента_3"/>
    <linearGradient id="_Новый_образец_градиента_3-17" data-name="Новый образец градиента 3" x1="286.47" y1="263.25" x2="368.9" y2="176.15" xlink:href="#_Новый_образец_градиента_3"/>
    <radialGradient id="_Безымянный_градиент_2" data-name="Безымянный градиент 2" cx="303.52" cy="168.27" fx="303.52" fy="168.27" r="130.26" gradientUnits="userSpaceOnUse">
      <stop offset="0" stop-color="#c08940"/>
      <stop offset=".44" stop-color="#ffe09d"/>
      <stop offset=".67" stop-color="#c38d41"/>
      <stop offset="1" stop-color="#986628"/>
    </radialGradient>
    <radialGradient id="_Безымянный_градиент_2-2" data-name="Безымянный градиент 2" cx="303.38" cy="169.72" fx="303.38" fy="169.72" r="130.26" xlink:href="#_Безымянный_градиент_2"/>
    <radialGradient id="_Безымянный_градиент_2-3" data-name="Безымянный градиент 2" cx="302.09" cy="172.64" fx="302.09" fy="172.64" r="130.26" xlink:href="#_Безымянный_градиент_2"/>
    <radialGradient id="_Безымянный_градиент_2-4" data-name="Безымянный градиент 2" cx="302.09" cy="172.64" fx="302.09" fy="172.64" r="130.26" xlink:href="#_Безымянный_градиент_2"/>
    <radialGradient id="_Безымянный_градиент_2-5" data-name="Безымянный градиент 2" cx="302.43" cy="165.55" fx="302.43" fy="165.55" r="130.26" xlink:href="#_Безымянный_градиент_2"/>
    <radialGradient id="_Безымянный_градиент_2-6" data-name="Безымянный градиент 2" cx="300.92" cy="161.58" fx="300.92" fy="161.58" r="130.26" xlink:href="#_Безымянный_градиент_2"/>
    <radialGradient id="_Безымянный_градиент_2-7" data-name="Безымянный градиент 2" cx="302.09" cy="172.64" fx="302.09" fy="172.64" r="130.26" xlink:href="#_Безымянный_градиент_2"/>
    <radialGradient id="_Безымянный_градиент_2-8" data-name="Безымянный градиент 2" cx="302.09" cy="172.64" fx="302.09" fy="172.64" r="130.26" xlink:href="#_Безымянный_градиент_2"/>
    <radialGradient id="_Безымянный_градиент_2-9" data-name="Безымянный градиент 2" cx="298.47" cy="158.98" fx="298.47" fy="158.98" r="130.26" xlink:href="#_Безымянный_градиент_2"/>
    <radialGradient id="_Безымянный_градиент_2-10" data-name="Безымянный градиент 2" cx="302.09" cy="172.64" fx="302.09" fy="172.64" r="130.26" xlink:href="#_Безымянный_градиент_2"/>
    <radialGradient id="_Безымянный_градиент_2-11" data-name="Безымянный градиент 2" cx="302.09" cy="172.64" fx="302.09" fy="172.64" r="130.26" xlink:href="#_Безымянный_градиент_2"/>
    <radialGradient id="_Безымянный_градиент_2-12" data-name="Безымянный градиент 2" cx="302.09" cy="172.64" fx="302.09" fy="172.64" r="130.26" xlink:href="#_Безымянный_градиент_2"/>
    <radialGradient id="_Безымянный_градиент_2-13" data-name="Безымянный градиент 2" cx="302.09" cy="172.64" fx="302.09" fy="172.64" r="130.26" xlink:href="#_Безымянный_градиент_2"/>
    <radialGradient id="_Безымянный_градиент_2-14" data-name="Безымянный градиент 2" cx="302.12" cy="172.64" fx="302.12" fy="172.64" r="130.38" xlink:href="#_Безымянный_градиент_2"/>
    <radialGradient id="_Безымянный_градиент_2-15" data-name="Безымянный градиент 2" cx="302.09" cy="172.64" fx="302.09" fy="172.64" r="130.26" xlink:href="#_Безымянный_градиент_2"/>
    <radialGradient id="_Безымянный_градиент_2-16" data-name="Безымянный градиент 2" cx="302.09" cy="172.64" fx="302.09" fy="172.64" r="130.26" xlink:href="#_Безымянный_градиент_2"/>
    <clipPath id="clippath">
      <path class="cls-1" d="m266.21,224.36c-16.86-22.11-113.33-1.28-157.8-37.7,46.16,48.18,95.99,69.48,157.8,37.7"/>
    </clipPath>
    <linearGradient id="_Новый_образец_градиента_3-18" data-name="Новый образец градиента 3" x1="-2043.64" y1="6019.63" x2="-2042.65" y2="6019.63" gradientTransform="translate(770723.16 -261268.58) rotate(-90) scale(128 -128)" xlink:href="#_Новый_образец_градиента_3"/>
    <clipPath id="clippath-1">
      <path class="cls-1" d="m279.38,221.95c-14.68-31.7-138.72-32.33-183.39-89.08,43.55,71.65,98.9,111.3,183.39,89.08"/>
    </clipPath>
    <linearGradient id="_Новый_образец_градиента_4" data-name="Новый образец градиента 4" x1="-2020.81" y1="6066.89" x2="-2019.82" y2="6066.89" gradientTransform="translate(709724.51 2130873.4) scale(351.2 -351.2)" gradientUnits="userSpaceOnUse">
      <stop offset="0" stop-color="#5edce5"/>
      <stop offset="1" stop-color="#2369dc"/>
    </linearGradient>
    <clipPath id="clippath-2">
      <path class="cls-1" d="m228.13,333.45c24.66-39.8,37.64-41.86,43.74-89.88-30.2,6.96-45.71,57.81-43.74,89.88"/>
    </clipPath>
    <linearGradient id="_Новый_образец_градиента_3-19" data-name="Новый образец градиента 3" x1="-2091.02" y1="6053.86" x2="-2090.04" y2="6053.86" gradientTransform="translate(-213810.02 -619723.07) rotate(-180) scale(102.42 -102.42)" xlink:href="#_Новый_образец_градиента_3"/>
    <clipPath id="clippath-3">
      <path class="cls-1" d="m209.69,387.22c12.12-65.92,71.79-79.34,78.2-135.58-55.59,40.12-67.88,69.97-78.2,135.58"/>
    </clipPath>
    <linearGradient id="_Новый_образец_градиента_4-2" data-name="Новый образец градиента 4" x1="-2020.81" y1="6066.56" x2="-2019.82" y2="6066.56" gradientTransform="translate(709871.59 2130888.83) scale(351.2 -351.2)" xlink:href="#_Новый_образец_градиента_4"/>
    <clipPath id="clippath-4">
      <path class="cls-1" d="m302.67,191.37c.22,8.81,3.03,19.96,3.26,33.85.4,23.88-9.97,34.02-24.41,56.87,22.88-24.43,31.07-39.64,31.15-55.13,0-.27.01-.54,0-.81-2.88-47.36-25.62-55.06,40.62-87.82-46.63,20.66-51.24,28.55-50.62,53.04"/>
    </clipPath>
    <linearGradient id="_Новый_образец_градиента_4-3" data-name="Новый образец градиента 4" x1="-2020.81" y1="6066.54" x2="-2019.82" y2="6066.54" gradientTransform="translate(709812.13 2130770.54) scale(351.2 -351.2)" xlink:href="#_Новый_образец_градиента_4"/>
    <clipPath id="clippath-5">
      <path class="cls-1" d="m293.12,157.84c0,3.46,2.81,6.26,6.27,6.26s6.27-2.8,6.27-6.26-2.81-6.26-6.27-6.26-6.27,2.8-6.27,6.26"/>
    </clipPath>
    <linearGradient id="_Новый_образец_градиента_4-4" data-name="Новый образец градиента 4" x1="-2020.81" y1="6066.65" x2="-2019.82" y2="6066.65" gradientTransform="translate(709754.82 2130759.36) scale(351.2 -351.2)" xlink:href="#_Новый_образец_градиента_4"/>
    <clipPath id="clippath-6">
      <path class="cls-1" d="m275.65,176.25c-1.06,9.84-2.27,20.99-9.24,31.27l3.36-.56c6.98-10.3,8.19-21.45,9.25-31.3,1.84-17.07,3.25-30.07,33.32-27.11l3.16-.67c-3.9-.38-7.4-.57-10.54-.57-26.18,0-27.56,12.74-29.31,28.94"/>
    </clipPath>
    <linearGradient id="_Новый_образец_градиента_4-5" data-name="Новый образец градиента 4" x1="-2020.81" y1="6066.65" x2="-2019.82" y2="6066.65" gradientTransform="translate(709768.74 2130775.99) scale(351.2 -351.2)" xlink:href="#_Новый_образец_градиента_4"/>
  </defs>
  <g id="_Слой_1-2" data-name="Слой 1">
    <g>
      <g>
        <g>
          <path class="cls-9" d="m231.48,262.71c-6.52,2.17-12.74,5.05-19.1,7.62-3.02,1.22-6.03,2.47-9.04,3.73-.39.28-.79.55-1.19.79-.19.3-.39.6-.58.9,7.33-3.27,14.73-6.39,22.19-9.34,4.32-1.71,8.63-3.44,12.85-5.35-1.83.54-3.58,1.13-5.13,1.65Z"/>
          <path class="cls-10" d="m329.94,150.9c-.26-.39-.47-.82-.62-1.25-.07.04-.15.08-.23.12l-13.79-1.88c-.59-.06-1.16-.11-1.73-.16-.18.02-.36.03-.54.03-6.48,0-13.6-.74-19.83,1.31-3.1,1.02-9.64,2.67-10.28,6.34-.23,1.32-.84,2.24-1.64,2.81.01.22.02.44,0,.67-.3,4.67-1.35,9.32-2.02,13.95-.57,3.94-.93,8.07-1.83,11.94-.85,3.63-2.3,7.11-3.28,10.71-.97,3.6-2.15,6.74-4.69,9.53-.79.87-1.67,1.34-2.56,1.5-.15.23-.29.46-.44.69l-.98,1.62c-.13-.07-.26-.14-.39-.21-1.41,1.19-3.4,1.69-5.49.67-1.46-.71-1.98-2.1-3.21-2.86.31.19-3.59-.5-3.07-.37-3.52-.82-7.04-1.61-10.59-2.27-7.74-1.44-15.41-2.8-22.78-5.67-2.83-1.1-3.68-3.89-3.15-6.22-.8.6-1.73,1.01-2.66,1.12-11.36,1.4-22.29-2.44-33.38-4.29-.37.08-.76.14-1.18.14-17.36.09-32.36-7.87-45.85-18.09-8.4-6.36-16.77-12.78-24.86-19.53,13.16,18.85,27.43,34.82,43.21,47.22,4.37,1.65,8.74,3.29,13.26,4.56,5.2,1.46,4.33,10.31-1.31,9.69-.44-.05-.88-.12-1.31-.18,0,0,0,0,0,0-.01,0-.03,0-.04-.01-2.1-.31-4.11-.8-6.06-1.41.16.21.32.42.48.63,6.91,3.09,13.62,6.88,18.69,12.43,6.4,1.64,13.24,2.25,18.82,2.78,10.05.96,19.36.5,24.83,10.48.73,1.33.8,2.78.37,4.06,2.26,1.18,3.35,4.02,2.05,6.79-2.44,5.23-5.88,10.36-11.76,12-.06.02-.12.02-.17.04-.05.15-.09.3-.13.45,1.04-.44,2.09-.87,3.13-1.31,12.31-5.23,30.75-14.75,43.8-6.87,3.37,2.03,2.98,6.41,0,8.52-2.25,1.59-4.58,3.03-6.97,4.37.02.42,0,.86-.09,1.32-4.01,20.69-12.83,39.92-18.96,59.99-.33,1.07-.64,2.14-.95,3.21,5.74-5.61,11.86-10.83,17.9-16.1,6.91-6.02,16.37-13.08,17.72-22.76.59-4.2,5.04-4.38,7.66-2.18.69-1,1.38-2.01,2.04-3.03,2.22-1.06,4.4-2.63,6.43-4.57,22.76-24.3,30.91-39.43,30.99-54.84,0-.27.02-.54,0-.81-2.46-40.44-19.47-51.81,17.45-74.84Z"/>
        </g>
        <g>
          <path class="cls-22" d="m301.88,133.13c45.28,9.57,71.23,45.67,71.23,45.67,0,0-.32-3.19-3.99-8.3-22.31-30.98-73.67-41.96-73.67-41.96,0,0-8.84,1.36,6.44,4.59"/>
          <path class="cls-39" d="m337.73,166.21c-1.95,3.81-1.81,6.93.39,2.54,2.2-4.39,10.64-15.56,10.64-15.56,0,0-9.07,9.22-11.03,13.02"/>
          <path class="cls-41" d="m369.16,160.94c3.87,3.02,2.66.14-.74-2.46-3.4-2.59-15.56-7.01-15.56-7.01,0,0,12.43,6.45,16.3,9.47"/>
          <path class="cls-40" d="m330.31,177.28c0,3.03,2.46,5.48,5.48,5.48s5.48-2.45,5.48-5.48-2.46-5.48-5.48-5.48-5.48,2.46-5.48,5.48"/>
          <path class="cls-46" d="m342.4,172.93c0,3.03,2.45,5.48,5.48,5.48s5.48-2.45,5.48-5.48-2.45-5.48-5.48-5.48-5.48,2.46-5.48,5.48"/>
          <path class="cls-44" d="m355.03,177.41c0,3.03,2.45,5.48,5.48,5.48s5.48-2.45,5.48-5.48-2.45-5.48-5.48-5.48-5.48,2.45-5.48,5.48"/>
          <path class="cls-45" d="m354.32,189.24c0,2.15,1.75,3.9,3.9,3.9s3.9-1.75,3.9-3.9-1.75-3.9-3.9-3.9-3.9,1.75-3.9,3.9"/>
          <path class="cls-43" d="m332.07,188.65c0,2.15,1.75,3.9,3.9,3.9s3.9-1.75,3.9-3.9-1.75-3.9-3.9-3.9-3.9,1.75-3.9,3.9"/>
          <path class="cls-42" d="m338.71,196.65c0,2.15,1.75,3.9,3.9,3.9s3.9-1.75,3.9-3.9-1.75-3.9-3.9-3.9-3.9,1.75-3.9,3.9"/>
          <path class="cls-18" d="m347.88,196.65c0,2.15,1.75,3.9,3.9,3.9s3.9-1.75,3.9-3.9-1.75-3.9-3.9-3.9-3.9,1.75-3.9,3.9"/>
          <path class="cls-21" d="m365.44,187.82c0,2.83,2.29,5.12,5.12,5.12s5.12-2.29,5.12-5.12-2.29-5.12-5.12-5.12-5.12,2.29-5.12,5.12"/>
          <path class="cls-16" d="m374.22,178.31c0,2.16,1.75,3.9,3.9,3.9s3.9-1.75,3.9-3.9-1.75-3.9-3.9-3.9-3.9,1.75-3.9,3.9"/>
          <path class="cls-13" d="m381.45,184.68c0,1.9,1.54,3.44,3.44,3.44s3.44-1.54,3.44-3.44-1.54-3.44-3.44-3.44-3.44,1.54-3.44,3.44"/>
          <path class="cls-20" d="m383.01,165.04c0,2.16,1.75,3.9,3.9,3.9s3.9-1.75,3.9-3.9-1.75-3.9-3.9-3.9-3.9,1.75-3.9,3.9"/>
          <path class="cls-15" d="m383.4,174.89c0,2.15,1.75,3.9,3.9,3.9s3.9-1.75,3.9-3.9-1.75-3.9-3.9-3.9-3.9,1.75-3.9,3.9"/>
          <path class="cls-19" d="m341.63,185.62c0,3.1,2.45,5.62,5.48,5.62s5.48-2.51,5.48-5.62-2.46-5.62-5.48-5.62-5.48,2.52-5.48,5.62"/>
          <path class="cls-17" d="m370.97,168.18c0,3.03,2.45,5.48,5.48,5.48s5.48-2.45,5.48-5.48-2.45-5.48-5.48-5.48-5.48,2.45-5.48,5.48"/>
        </g>
        <g>
          <g>
            <path class="cls-51" d="m333.61,132.94c3.57-2.97,4.41-7.88,7.24-11.43,2.77-6.19,7.1-11.56,9.73-17.83.74-1.25,1.29-3.24-.81-3.88-2.06-.59-3.06,1.78-3.55,3.4-4.24,8.75-8.99,19.8-12.66,28.7.01.26.04.78.05,1.03"/>
            <path class="cls-26" d="m324.41,132.94c3.42-4.8,11.95-35.69,15.78-44.86.35-2.36,2.42-4.83,1.07-7.23-1.07-.97-3.34-1.64-3.91.56-3.66,14.98-8.06,35.5-12.8,49.82-.1.55-.46,1.17-.15,1.71"/>
            <path class="cls-24" d="m343.07,132.86c3.35-2.55,15.74-21.77,20.31-27.21.74-1.54,2.68-2.77,2.26-4.7-.52-.89-1.93-1.83-2.78-.45-5.68,9.43-13.05,22.47-19.33,31.22-.19.36-.56.7-.46,1.13"/>
            <path class="cls-25" d="m264.95,184.64c.12-.07.37-.22.49-.29-1.14-.53-2.4-.44-3.61-.24-6.6-.48-13.32.39-19.92-.02-1.53.2-2.03,2.26-.78,3.14,2.81.19,5.52-.79,8.33-.75,5.13-.88,10.4-.69,15.5-1.83"/>
            <path class="cls-27" d="m315.12,129.86c2.02-11.04,10.32-70.33,9.82-71.7-1.01-.57-2.17-.63-3.3-.61-2.79,2-8.33,69.3-6.52,72.31"/>
            <path class="cls-28" d="m305.75,127.01c.46-7.06.39-18.71.2-25.79-.33-3.07.25-6.22-.11-9.22-.5-.75-.72-1.93-1.79-2.06-1.86-.33-4.06,1.55-3.05,3.58.96,9.57,3.94,22.77,3.92,31.77-.12.71.36,1.26.83,1.72"/>
            <path class="cls-30" d="m263.6,176.97c.97-.1-.62-.79-.97-.78-22.75-4.13-45.12-6.38-68.08-9.9-1.07.37-3.07,1.05-2.51,2.44.18.78.41,1.84,1.39,1.91,7.43,1.08,14.96,1.23,22.41,2.15,9.97.24,36.94,2.81,47.76,4.18"/>
            <path class="cls-31" d="m266.76,169.49l.38-.12c-7.11-4.79-40.12-14.4-49.79-17.28-2.36-.83-4.25,3.28-1.75,4.2,15.43,4.32,35.57,10.57,51.16,13.2"/>
            <path class="cls-29" d="m295.67,125.22c.08-1.49-.6-2.93-.93-4.37-4.23-13.07-5.85-31.69-8.91-46.39-.5-1-.92-2.8-2.35-2.58-1.75-.22-3,1.47-2.88,3.08,3.33,10.8,6.12,21.85,9.6,32.63,1.39,5.69,2.98,11.35,4.87,16.9.15.18.46.55.61.74"/>
            <path class="cls-37" d="m269.6,162.21l.37.06-1.66-1.78c-9.33-5.25-18.7-10.49-27.98-15.88-.93-.5-2.06-.16-2.97.22-.62,1.35-1.31,3.47.9,4.07,7.49,3.05,14.97,6.17,22.22,9.75,3.06,1.1,5.9,2.92,9.12,3.56"/>
            <path class="cls-33" d="m291.38,140c-4.2-10.51-8.55-21.15-12.73-31.75-3.4-8.78-6.67-17.61-10.34-26.29-1.63-2.8-1.51-6.49-4.34-8.58-2.1-.57-4.13,1.9-2.92,3.77,9.15,19.95,18.9,39.56,28.12,59.45.57,1.21,1.12,2.53,2.21,3.39"/>
            <path class="cls-35" d="m284.88,145.38c.16-.15.47-.46.63-.62-3.1-3.46-4.76-7.9-7.33-11.74-2.49-4-4.09-8.46-6.83-12.31-1.31-1.94-2.29-4.1-3.5-6.11-1.77-1.45-4.7-.06-4.38,2.19,3.72,5.94,8.16,11.49,12.71,16.85,2.74,4.03,5.61,7.96,8.7,11.73"/>
            <path class="cls-38" d="m278.85,149.83c-5.51-6.94-30.74-36.38-34.63-40.04-1.71-1.08-4.05.48-3.56,2.48,8.35,10.11,28.27,28.68,38.2,37.56"/>
            <path class="cls-34" d="m272.43,154.42l.37.02c-10.87-9.84-23-18.12-34.35-27.39-5.92-3.63-10.6-8.97-16.45-12.73-1.99-1.29-3.59-3.82-6.25-3.58-2.12.59-2.1,3.8-.07,4.49,7.32,5.13,14.78,10.08,22,15.36,9.82,6.73,24.63,18.96,34.75,23.83"/>
            <path class="cls-32" d="m358.84,137.57c-.03-.12-.1-.35-.14-.46,2.41-.83,4.38-2.51,6.63-3.67,2.26-1.25,4.21-2.96,6.55-4.07,1.15-.58,2.19-1.35,3.3-1.99,1.23-.22,2.27,1.22,1.52,2.21-3.37,1.85-6.97,3.33-10.58,4.68-2.39,1.2-4.81,2.31-7.29,3.3"/>
            <path class="cls-36" d="m354.57,131.66c-.05-.08-.14-.25-.19-.33,1.7-1.07,2.91-2.71,4.43-4,1.51-1.37,2.7-3.02,4.29-4.3.78-.65,1.44-1.43,2.18-2.12.91-.39,1.96.53,1.56,1.43-2.25,2.03-4.75,3.8-7.27,5.49-1.62,1.35-3.27,2.64-5,3.83"/>
          </g>
          <g class="cls-8">
            <rect class="cls-12" x="142.96" y="138.77" width="88.71" height="165.27" transform="translate(-55.82 379.49) rotate(-82.8)"/>
          </g>
          <g class="cls-7">
            <rect class="cls-23" x="95.31" y="81.41" width="184.75" height="214.22" transform="translate(-67.14 264.84) rotate(-61.8)"/>
          </g>
          <g>
            <path class="cls-10" d="m264.34,225.31c.63-.31,1.25-.62,1.88-.94-11.4-14.94-59.16-10.27-102.65-16.92,28.22,18,61.14,25.12,100.78,17.86"/>
            <path class="cls-11" d="m259.43,233.1c-36.47.61-37.13,1.44-70.97,15.04,20.24,5.87,61.09,9.09,70.97-15.04"/>
          </g>
          <g class="cls-6">
            <rect class="cls-14" x="198.6" y="248.21" width="100.83" height="80.59" transform="translate(-119.62 385.21) rotate(-63.9)"/>
          </g>
          <g class="cls-4">
            <rect class="cls-50" x="170.57" y="252.94" width="156.44" height="132.99" transform="translate(-150.29 387.75) rotate(-61.8)"/>
          </g>
          <g class="cls-5">
            <rect class="cls-49" x="237.1" y="144.61" width="160.61" height="131.19" transform="translate(-17.84 390.6) rotate(-61.8)"/>
          </g>
          <g class="cls-3">
            <rect class="cls-48" x="290.91" y="149.36" width="16.96" height="16.97" transform="translate(18.81 347.1) rotate(-61.8)"/>
          </g>
          <path class="cls-10" d="m298.11,154.21c1.41,0,2.55,1.14,2.55,2.54s-1.14,2.54-2.55,2.54-2.54-1.14-2.54-2.54,1.14-2.54,2.54-2.54"/>
          <g class="cls-2">
            <rect class="cls-47" x="252.07" y="140.3" width="77.77" height="72.53" transform="translate(-2.14 349.55) rotate(-61.8)"/>
          </g>
          <g>
            <path class="cls-10" d="m262.65,233.18c-50.11,16.79-50.65,18.23-91.44,51.81,30.53-.74,88.36-14.16,91.44-51.81"/>
            <path class="cls-11" d="m214.38,252.25c18.08.75,37.37-3.04,44.43-17.78-21.88,7.37-33.78,11.75-44.43,17.78"/>
            <path class="cls-11" d="m267.29,267.75c-7.24,26.21-19.49,33.94-39.16,65.7-.33-5.33-.17-11.19.46-17.27,8.44-17.62,20.37-32.69,38.7-48.42"/>
          </g>
        </g>
      </g>
      <g>
        <path class="cls-10" d="m64.24,105.8c1.77-.03,3.46.57,5.06,1.81,2.36,1.83,3.51,4.16,3.43,7-.08,2.84-1.42,5.95-4.03,9.33l-10.3,13.35-26.71-20.61,9.73-12.61c2.43-3.15,4.92-5.13,7.47-5.97,2.55-.83,4.93-.39,7.14,1.32,1.32,1.02,2.23,2.25,2.71,3.7.49,1.45.56,3,.21,4.66,1.76-1.28,3.52-1.93,5.29-1.97Zm-16.68,13.17l4.51-5.84c1.05-1.37,1.58-2.61,1.57-3.73,0-1.12-.55-2.09-1.62-2.91-1.04-.8-2.12-1.07-3.23-.79-1.11.28-2.18,1.09-3.21,2.43l-4.51,5.84,6.49,5.01Zm16.35-5.41c-2.21-1.71-4.45-1.09-6.72,1.85l-5.31,6.89,6.75,5.21,5.32-6.89c2.27-2.94,2.26-5.29-.03-7.06Z"/>
        <path class="cls-10" d="m84.27,104.29c-3.1.77-6.13.71-9.1-.18-2.97-.89-5.57-2.58-7.81-5.07-2.23-2.49-3.64-5.25-4.21-8.3-.57-3.05-.31-6.07.79-9.07,1.1-2.99,2.95-5.67,5.57-8.02,2.2-1.98,4.54-3.39,7.01-4.22,2.47-.83,4.95-1.08,7.45-.73l-.69,6.84c-3.48-.41-6.49.52-9.04,2.81-1.58,1.42-2.68,3.02-3.3,4.81-.62,1.79-.73,3.61-.33,5.45.4,1.84,1.3,3.54,2.7,5.09,1.39,1.55,2.99,2.63,4.77,3.23,1.79.6,3.6.68,5.45.25,1.85-.43,3.56-1.35,5.14-2.77,2.54-2.29,3.79-5.19,3.72-8.72l6.87.05c.1,2.55-.41,5.01-1.51,7.38-1.11,2.38-2.76,4.55-4.97,6.54-2.59,2.33-5.44,3.88-8.53,4.65Z"/>
        <path class="cls-10" d="m125.11,68l3.41,5.26-22.21,14.42-18.37-28.3,21.68-14.07,3.41,5.26-15.08,9.79,3.99,6.15,13.32-8.65,3.31,5.09-13.32,8.65,4.25,6.55,15.62-10.14Z"/>
        <path class="cls-10" d="m140.33,32c2.44-.03,4.6.54,6.46,1.7,1.86,1.16,3.32,2.88,4.36,5.15,1.04,2.25,1.39,4.46,1.07,6.64-.32,2.18-1.29,4.19-2.91,6.01-1.62,1.82-3.8,3.37-6.55,4.64l-6.26,2.88,3.89,8.45-7.19,3.31-14.12-30.64,13.45-6.2c2.75-1.27,5.35-1.92,7.79-1.94Zm3.66,14.9c.7-1.44.66-3-.12-4.69-.79-1.72-1.96-2.78-3.51-3.18-1.55-.4-3.4-.1-5.56.89l-5.86,2.7,4.9,10.64,5.86-2.7c2.16-.99,3.59-2.21,4.29-3.65Z"/>
        <path class="cls-10" d="m170.4,53.32c-3.16-.66-5.88-2.04-8.16-4.14-2.28-2.1-3.88-4.74-4.8-7.92-.92-3.18-.97-6.27-.15-9.26.82-2.99,2.38-5.61,4.7-7.85,2.32-2.24,5.19-3.85,8.6-4.84,3.41-.98,6.69-1.14,9.83-.48,3.14.67,5.86,2.05,8.16,4.14s3.91,4.73,4.83,7.91c.92,3.18.96,6.27.13,9.27-.83,3-2.4,5.62-4.7,7.85-2.3,2.24-5.16,3.85-8.57,4.83-3.41.98-6.7,1.15-9.85.48Zm12.89-9.71c1.31-1.33,2.19-2.91,2.62-4.74.44-1.83.37-3.75-.21-5.76-.58-2.01-1.54-3.67-2.89-4.99s-2.93-2.19-4.75-2.62c-1.82-.43-3.7-.36-5.64.2-1.94.56-3.57,1.51-4.88,2.84-1.31,1.33-2.19,2.91-2.62,4.74-.44,1.83-.37,3.75.21,5.76.58,2.01,1.54,3.67,2.89,4.99,1.35,1.32,2.93,2.19,4.75,2.62,1.82.43,3.7.36,5.64-.2,1.94-.56,3.57-1.51,4.88-2.84Z"/>
        <path class="cls-10" d="m209.5,43.88c-3-1.09-5.47-2.84-7.43-5.25-1.96-2.41-3.17-5.26-3.62-8.57-.46-3.31-.07-6.39,1.17-9.24,1.23-2.85,3.15-5.2,5.73-7.07s5.62-3.04,9.11-3.52c2.94-.41,5.66-.26,8.17.43,2.51.69,4.71,1.88,6.58,3.57l-4.4,5.28c-2.65-2.29-5.67-3.21-9.06-2.74-2.1.29-3.91,1-5.43,2.14-1.52,1.13-2.63,2.58-3.32,4.33-.7,1.75-.9,3.66-.62,5.73.29,2.07,1,3.85,2.14,5.35,1.14,1.5,2.6,2.58,4.37,3.26,1.77.68,3.7.88,5.8.59,3.39-.47,6.05-2.18,7.97-5.14l5.67,3.89c-1.35,2.16-3.14,3.92-5.39,5.27-2.25,1.35-4.84,2.23-7.78,2.63-3.45.48-6.68.17-9.67-.93Z"/>
        <path class="cls-10" d="m243.23,40.52c-2.84-1.46-5.08-3.5-6.73-6.13-1.65-2.63-2.49-5.61-2.54-8.96-.04-3.34.72-6.35,2.3-9.02,1.58-2.67,3.76-4.77,6.56-6.3,2.8-1.53,5.96-2.32,9.47-2.37,2.96-.04,5.65.44,8.06,1.44,2.41,1,4.44,2.45,6.09,4.35l-5.02,4.69c-2.35-2.6-5.23-3.88-8.65-3.84-2.12.03-4,.51-5.65,1.45-1.65.94-2.93,2.23-3.83,3.88s-1.35,3.52-1.32,5.61c.03,2.09.52,3.95,1.47,5.57.95,1.63,2.26,2.89,3.93,3.78,1.67.89,3.57,1.33,5.69,1.3,3.42-.05,6.27-1.42,8.55-4.11l5.14,4.56c-1.6,1.98-3.6,3.5-6,4.56-2.4,1.06-5.08,1.61-8.04,1.65-3.48.05-6.65-.66-9.48-2.12Z"/>
        <path class="cls-10" d="m275.12,8.69l7.81.97-2.7,21.81,18.9-19.8,7.37.91-4.15,33.48-7.76-.96,2.7-21.76-18.89,19.75-7.42-.92,4.15-33.48Zm7.43-8.69l5.38.67c-.22,2.34.97,3.67,3.59,3.99,1.29.16,2.32-.01,3.07-.52.75-.51,1.22-1.33,1.39-2.47l5.38.67c-.33,2.39-1.35,4.11-3.05,5.16-1.71,1.05-4.13,1.38-7.26.99-6.21-.77-9.04-3.6-8.5-8.49Z"/>
        <path class="cls-10" d="m318.67,15.01l7.57,2.12-5.93,21.16,21.65-16.76,7.15,2-9.1,32.49-7.53-2.11,5.92-21.12-21.63,16.71-7.2-2.02,9.1-32.49Z"/>
        <path class="cls-10" d="m353.7,59.91c-1.96-2.52-3.13-5.32-3.52-8.39-.39-3.08.11-6.14,1.47-9.19,1.37-3.05,3.33-5.45,5.89-7.21,2.56-1.76,5.43-2.74,8.61-2.95,3.18-.21,6.38.41,9.59,1.85,2.7,1.21,4.94,2.78,6.7,4.7,1.76,1.92,2.99,4.09,3.69,6.52l-6.53,2.14c-1.03-3.35-3.11-5.73-6.23-7.13-1.93-.87-3.84-1.22-5.73-1.07-1.89.16-3.6.79-5.11,1.9-1.52,1.11-2.7,2.63-3.56,4.53-.86,1.91-1.2,3.8-1.02,5.67s.83,3.57,1.97,5.09,2.68,2.71,4.61,3.57c3.12,1.4,6.28,1.36,9.48-.13l2.74,6.3c-2.29,1.12-4.74,1.66-7.36,1.61-2.62-.05-5.28-.68-7.99-1.9-3.18-1.43-5.75-3.4-7.71-5.92Z"/>
        <path class="cls-10" d="m396.43,68.9l-4.6-2.96-7.36,11.43-6.62-4.26,18.26-28.37,6.61,4.26-7.38,11.47,4.77,3.07,14.94-6.6,7.03,4.52-18.23,7.64.26,20.91-7.56-4.87-.12-16.24Z"/>
        <path class="cls-10" d="m428.77,66.67l5.8,5.31-14.84,16.22,26.88-5.2,5.48,5.01-22.77,24.89-5.77-5.28,14.8-16.18-26.84,5.16-5.52-5.05,22.77-24.89Z"/>
        <path class="cls-10" d="m454.8,135.74l-5.01,3.76-15.91-21.17,26.97-20.27,15.53,20.66-5.01,3.76-10.8-14.38-5.86,4.4,9.54,12.7-4.85,3.65-9.54-12.7-6.24,4.69,11.18,14.88Z"/>
      </g>
      <g>
        <path class="cls-10" d="m33.71,229.2l-33.71-1.32.31-7.86,27.36,1.07.6-15.43-27.36-1.07.31-7.86,33.71,1.32-1.22,31.15Z"/>
        <path class="cls-10" d="m11.88,265.74l-6.17,1.07-4.51-26.1,33.25-5.75,4.4,25.47-6.18,1.07-3.06-17.72-7.22,1.25,2.7,15.65-5.98,1.03-2.7-15.65-7.69,1.33,3.17,18.35Z"/>
        <path class="cls-10" d="m27.54,307.58l-12.39,4.97-2.73-6.8,6.49-2.6-8.99-22.4-6.49,2.6-2.73-6.8,12.41-4.93.51,1.27c.82,1.88,2.74,2.67,5.74,2.38,3-.29,7.02-1.35,12.08-3.16l9.94-3.57,9.79,24.4-25.41,10.2,1.78,4.44Zm-3.93-25.91c-2.72.53-4.87.53-6.46.01l5.7,14.19,19.5-7.83-4.37-10.88-4.62,1.7c-3.79,1.34-7.04,2.28-9.75,2.81Z"/>
        <path class="cls-10" d="m45.87,333.79l-8.94-13.13-7.68,1.56-4.56-6.71,36.47-6.38,4.4,6.46-19.29,31.63-4.67-6.87,4.27-6.57Zm3.5-5.4l7.63-11.75-13.73,2.79,6.11,8.97Z"/>
        <path class="cls-10" d="m88.38,351.36l-11.28-11.73-19.7,19.01-5.45-5.67,24.32-23.38,16.73,17.4-4.62,4.37Z"/>
        <path class="cls-10" d="m78.16,376.18c-1.33-2.94-1.81-5.95-1.46-9.04.35-3.08,1.54-5.93,3.57-8.55,2.03-2.61,4.49-4.47,7.39-5.58s5.94-1.38,9.12-.82,6.17,1.92,8.97,4.1c2.8,2.18,4.86,4.73,6.18,7.66,1.31,2.93,1.8,5.94,1.46,9.04-.34,3.09-1.52,5.95-3.55,8.56-2.03,2.61-4.5,4.47-7.41,5.56-2.91,1.09-5.95,1.37-9.12.82-3.16-.54-6.15-1.91-8.95-4.08-2.8-2.18-4.87-4.74-6.19-7.68Zm15.44,4.7c1.85.28,3.64.05,5.38-.67,1.74-.72,3.25-1.91,4.53-3.56,1.28-1.65,2.06-3.41,2.33-5.27.27-1.86.05-3.66-.68-5.38s-1.89-3.2-3.48-4.44c-1.6-1.24-3.32-2-5.16-2.27-1.85-.28-3.64-.05-5.38.67-1.74.72-3.25,1.91-4.53,3.56-1.28,1.65-2.06,3.41-2.33,5.27-.27,1.86-.05,3.66.68,5.38.72,1.72,1.88,3.2,3.48,4.44,1.6,1.24,3.32,2,5.17,2.27Z"/>
        <path class="cls-10" d="m141.95,387.28l-14.21-7.94-13.31,23.92-6.87-3.84,16.45-29.45,21.07,11.77-3.14,5.53Z"/>
        <path class="cls-10" d="m147.76,383.12l7.34,2.84-7.92,20.5,23.15-14.62,6.93,2.68-12.16,31.47-7.29-2.82,7.91-20.46-23.13,14.57-6.97-2.69,12.16-31.47Z"/>
        <path class="cls-10" d="m210.08,402.23l-7.46,32.9-7.63-1.73,2.68-11.85c-3.13.38-5.93.29-8.4-.27-4.48-1.02-7.67-2.85-9.58-5.51-1.9-2.66-2.41-5.97-1.5-9.95l2.33-10.29,7.63,1.73-2.14,9.45c-.51,2.26-.28,4.09.68,5.52.96,1.42,2.61,2.39,4.92,2.92,2.54.58,5.03.63,7.48.16l3.35-14.81,7.63,1.73Z"/>
        <path class="cls-10" d="m240.6,432.95l-.58,6.24-26.37-2.44,3.1-33.6,25.74,2.38-.58,6.24-17.91-1.65-.67,7.29,15.81,1.46-.56,6.05-15.81-1.46-.72,7.78,18.54,1.71Z"/>
        <path class="cls-10" d="m255.57,437.51c-2.86-1.4-5.15-3.4-6.84-6-1.7-2.6-2.6-5.57-2.71-8.91-.11-3.34.6-6.36,2.12-9.06,1.53-2.7,3.67-4.84,6.44-6.43s5.91-2.43,9.43-2.55c2.96-.1,5.66.33,8.08,1.28,2.43.95,4.48,2.36,6.18,4.24l-4.93,4.79c-2.4-2.56-5.3-3.78-8.72-3.67-2.12.07-3.99.59-5.62,1.56-1.63.97-2.88,2.29-3.76,3.96-.87,1.67-1.28,3.55-1.21,5.63.07,2.09.59,3.93,1.57,5.54.98,1.61,2.32,2.84,4.01,3.7,1.69.86,3.59,1.26,5.71,1.19,3.42-.11,6.24-1.54,8.47-4.28l5.23,4.46c-1.57,2.01-3.53,3.57-5.91,4.68-2.38,1.11-5.05,1.71-8.01,1.8-3.48.11-6.66-.53-9.52-1.93Z"/>
        <path class="cls-10" d="m297.86,421.86l-5.4.9,2.23,13.41-7.76,1.29-5.54-33.28,7.76-1.29,2.24,13.45,5.59-.93,6.63-14.93,8.24-1.37-8.36,17.91,14.24,15.32-8.87,1.48-11-11.95Z"/>
        <path class="cls-10" d="m314,398.51l7.5-2.38,6.64,20.95,8.92-25.88,7.08-2.24,10.2,32.16-7.45,2.36-6.63-20.91-8.93,25.84-7.13,2.26-10.2-32.16Z"/>
        <path class="cls-10" d="m386,399.4l2.74,5.63-23.82,11.59-14.76-30.34,23.24-11.31,2.74,5.63-16.17,7.87,3.21,6.59,14.28-6.95,2.66,5.46-14.28,6.95,3.42,7.02,16.74-8.15Z"/>
        <path class="cls-10" d="m411.11,348.26l20.67,26.67-6.18,4.79-7.44-9.6c-1.69,2.65-3.55,4.76-5.55,6.32-3.63,2.81-7.08,4.11-10.33,3.89-3.26-.22-6.14-1.94-8.64-5.16l-6.47-8.34,6.18-4.79,5.93,7.66c1.42,1.83,2.98,2.82,4.69,2.98,1.71.16,3.5-.49,5.38-1.95,2.06-1.6,3.69-3.49,4.88-5.67l-9.3-12,6.18-4.79Z"/>
        <path class="cls-10" d="m438.33,329.13l-7.51,7.96,19.92,18.78-5.36,5.69-19.92-18.78-7.47,7.93-4.63-4.36,20.35-21.58,4.63,4.36Z"/>
        <path class="cls-10" d="m473.01,315.92l5.18,3.52-14.9,21.9-27.9-18.97,14.54-21.37,5.18,3.52-10.11,14.87,6.06,4.12,8.93-13.13,5.02,3.42-8.93,13.13,6.46,4.39,10.47-15.39Z"/>
        <path class="cls-10" d="m464.61,268.28l31.05,13.21-3.1,7.28-12.73-5.42-6.08,14.3,12.73,5.42-3.1,7.28-31.05-13.21,3.1-7.28,12.24,5.21,6.08-14.3-12.24-5.21,3.1-7.28Z"/>
        <path class="cls-10" d="m466.26,262.86l1.36-7.75,21.65,3.79-18.84-19.86,1.28-7.32,33.23,5.81-1.35,7.7-21.6-3.78,18.79,19.86-1.29,7.36-33.23-5.81Z"/>
        <path class="cls-10" d="m470.54,198.77l33.7-1.58.37,7.81-8.95.42.34,7.22,9.24,5.63.39,8.35-10.49-6.65c-.82,2.35-2.14,4.19-3.96,5.52-1.82,1.33-4.04,2.05-6.68,2.17-2.6.12-4.87-.37-6.8-1.49-1.93-1.12-3.46-2.76-4.57-4.92-1.12-2.17-1.74-4.74-1.88-7.74l-.69-14.74Zm8.82,19.32c1.08,1.14,2.64,1.66,4.66,1.57,1.96-.09,3.44-.73,4.44-1.92,1.01-1.19,1.46-2.89,1.35-5.1l-.32-6.93-12.23.57.32,6.74c.11,2.25.7,3.94,1.78,5.08Z"/>
      </g>
    </g>
  </g>
</svg>