<?xml version="1.0" encoding="UTF-8"?>
<svg id="_Слой_2" data-name="Слой 2" xmlns="http://www.w3.org/2000/svg" xmlns:xlink="http://www.w3.org/1999/xlink" viewBox="0 0 268.18 142.19">
  <defs>
    <style>
      .cls-1 {
        fill: url(#_Безымянный_градиент_9);
      }
    </style>
    <linearGradient id="_Безымянный_градиент_9" data-name="Безымянный градиент 9" x1="134.09" y1="0" x2="134.09" y2="142.19" gradientUnits="userSpaceOnUse">
      <stop offset="0" stop-color="#efe1b3"/>
      <stop offset=".4" stop-color="#efe1b3"/>
      <stop offset=".46" stop-color="#efe1b3"/>
      <stop offset=".52" stop-color="#eedfb1"/>
      <stop offset=".54" stop-color="#ecdbaa"/>
      <stop offset=".55" stop-color="#e9d49e"/>
      <stop offset=".57" stop-color="#e4c98d"/>
      <stop offset=".58" stop-color="#debb77"/>
      <stop offset=".58" stop-color="#d8ac5f"/>
      <stop offset=".97" stop-color="#8a5014"/>
    </linearGradient>
  </defs>
  <g id="_Слой_1-2" data-name="Слой 1">
    <path class="cls-1" d="m177.47,106.44v8.26h-1.01v-9.19h3.66v.93h-2.65Zm5.67,8.35c-1.4,0-2.1-.92-2.1-2.31v-4.75c0-1.41.7-2.31,2.1-2.31s2.11.91,2.11,2.31v4.75c0,1.39-.7,2.31-2.11,2.31Zm0-.93c.75,0,1.09-.49,1.09-1.33v-4.86c0-.83-.34-1.33-1.09-1.33s-1.09.5-1.09,1.33v4.86c0,.84.35,1.33,1.09,1.33Zm7.92-8.35v8.28h.7v2.17h-1v-1.26h-3.75v1.26h-.98v-2.17h.59c.32-.35.38-.77.41-1.34l.35-6.95h3.69Zm-1.04.93h-1.71l-.3,6c-.04.66-.13,1.05-.42,1.35h2.43v-7.35Zm-13.57,21.96h1.02v-8.26h2.26v8.26h1.02v-9.19h-4.31v9.19Zm9.14-.93h-2.76v-3.27h2.25v-.92h-2.25v-3.14h2.76v-.93h-3.78v9.19h3.78v-.93Zm5.47,2.19v-1.26h-3.75v1.26h-.98v-2.17h.59c.32-.35.38-.77.41-1.34l.35-6.95h3.69v8.28h.7v2.17h-1Zm-.74-9.52h-1.71l-.3,6c-.04.66-.13,1.05-.42,1.35h2.43v-7.35Zm5.99,6.41h-2.32l-.35,1.85h-.95l1.76-9.19h1.48l1.76,9.19h-1.02l-.35-1.85Zm-.14-.88l-1.04-5.3-1.01,5.3h2.05Zm3.35-5.53h2.65v-.93h-3.66v9.19h1.01v-8.26Zm5.67,8.35c-1.4,0-2.1-.92-2.1-2.31v-4.75c0-1.41.7-2.31,2.1-2.31s2.11.91,2.11,2.31v4.75c0,1.39-.7,2.31-2.11,2.31Zm0-.93c.75,0,1.09-.49,1.09-1.33v-4.86c0-.83-.34-1.33-1.09-1.33s-1.09.5-1.09,1.33v4.86c0,.84.35,1.33,1.09,1.33Zm6.76-7.42v-.93h-3.66v9.19h1.01v-8.26h2.65Zm2.03,6.41l-.35,1.85h-.95l1.76-9.19h1.48l1.76,9.19h-1.02l-.35-1.85h-2.32Zm.13-.88h2.05l-1.04-5.3-1.01,5.3Zm-35.94,11.56l-.81,2.53v-6.85h-.91v9.19h1.06l1.35-4.24,1-3.07v7.31h.92v-9.19h-1.14l-1.47,4.32Zm8.97-.18h-2.26v-4.14h-1.02v9.19h1.02v-4.14h2.26v4.14h1.02v-9.19h-1.02v4.14Zm5.05-4.14l1.76,9.19h-1.02l-.35-1.85h-2.32l-.35,1.85h-.95l1.76-9.19h1.48Zm.24,6.46l-1.04-5.3-1.01,5.3h2.05Zm4.31-6.55c-1.4,0-2.06.92-2.06,2.31v4.75c0,1.39.66,2.31,2.06,2.31s2.07-.92,2.07-2.31v-1.14h-.97v1.19c0,.83-.33,1.33-1.08,1.33s-1.08-.5-1.08-1.33v-4.86c0-.83.34-1.33,1.08-1.33s1.08.5,1.08,1.33v.88h.97v-.83c0-1.39-.66-2.31-2.07-2.31Zm2.72,1.02h1.69v8.26h1.02v-8.26h1.69v-.93h-4.41v.93Zm8.15-.93l1.76,9.19h-1.02l-.35-1.85h-2.32l-.35,1.85h-.95l1.76-9.19h1.48Zm.24,6.46l-1.04-5.3-1.01,5.3h2.05Zm6.54-.2v.77c0,1.38-.67,2.15-2.1,2.15h-2.11v-9.19h2.06c1.43,0,2,.68,2,2.04v.43c0,.97-.28,1.58-1.08,1.82.89.25,1.23.96,1.23,1.97Zm-3.19-2.36h.79c.81,0,1.23-.26,1.23-1.22v-.54c0-.81-.28-1.21-1.01-1.21h-1.01v2.97Zm2.18,2.3c0-1.02-.41-1.37-1.29-1.37h-.89v3.43h1.09c.75,0,1.09-.39,1.09-1.25v-.81Zm5.22-2.06h-2.26v-4.14h-1.02v9.19h1.02v-4.14h2.26v4.14h1.02v-9.19h-1.02v4.14Zm3.79.18l-.81,2.53v-6.85h-.91v9.19h1.06l1.35-4.24,1-3.07v7.31h.92v-9.19h-1.14l-1.47,4.32Zm8.15-4.32h-1.04l-2.44,4.44v-4.44h-1.02v9.19h1.02v-3.09l.54-.91,1.97,3.99h1.05l-2.4-5,2.32-4.19Zm3.85,0l1.76,9.19h-1.02l-.35-1.85h-2.32l-.35,1.85h-.95l1.76-9.19h1.48Zm.24,6.46l-1.04-5.3-1.01,5.3h2.05Zm-127.46-54.58s-3.46,10.79-15.77,22.97c-12.31,12.18-31,19.51-31,19.51,0,0,18.13-3.74,34.18-16.19,16.05-12.45,12.59-26.29,12.59-26.29Zm-23.13,43.11c.81.37,1.63.73,2.46,1.07l-.52-1.61c-.66.19-1.31.37-1.94.54ZM122.09,27.45c.78,0,1.41-.63,1.41-1.41s-.63-1.41-1.41-1.41-1.41.63-1.41,1.41.63,1.41,1.41,1.41Zm-32.89,98.9l1.52,4.2c1.78.59,3.59,1.12,5.43,1.56l-2.5-7.39c-1.51.6-3,1.15-4.45,1.63Zm26.72-86.42c0,8.33,12.62,17.77,15.55,23.26,2.93,5.48,5.85,13.89,5.85,13.89,0,0,.22-5.26-1.1-9.43-1.32-4.17-10.6-38.24-10.6-38.24,0,0-2.41-.11-1.94,1.83.47,1.94,7.2,24.79,7.2,24.79l-9.43-25.74s-5.53,4.27-5.53,9.65Zm152.19,44.3c-.96,13.01-11.49,23.53-24.5,24.47-11.3.82-21.25-5.49-25.82-14.87h-44.4c-10.35,23.64-33.94,40.17-61.4,40.17-3.95,0-7.83-.34-11.6-1l-3.58-9.62c28.75-12.65,37.39-18.58,38.74-31.45.67-6.37-2.78-12.57-3.58-14.93-.86-2.54-1.41-5.18-1.6-7.86-.15-2.12-.42-4.1-.73-5.88h0s1.32,2.69,2.39,4.84c.06.12.11.21.15.27,2.57,5.77,4.61,10.86,5,12.3.66,2.49.59,3.14.59,3.14,0,0,3-3.95,1.24-11.55-1.75-7.6-11.84-43.72-11.84-43.72,0,0,.55-8.34-4.79-10.75-5.34-2.41-10.16-1.13-12.76.62-2.6,1.76-6.03.69-6.03.69,0,0,.55,1.21,1.39,1.97.84.77,2.3.88,2.3.88,0,0-1.5,1.5-2.85,2.12-1.35.62-2.67.51-2.67.51,0,0,2.3.99,3.4,1.02,1.1.04,1.28-.11,1.28-.11,0,0-.33,6.98,3.62,13.12,3.95,6.14,12.58,18.13,10.24,27.05-2.34,8.92-4.68,10.31-11.77,11.33-7.09,1.02-19.08,3.29-28.15,10.75-7.22,5.94-12.86,21.43-14.86,27.49-1.65,5.39-1.65,6.91-1.65,6.91,0,0-.97-5.3-1.01-9.62-5.35-5.77-9.69-12.49-12.76-19.87v1.17H0l38.48-29.91c3.67-2.85,5.86-7.21,5.87-11.67,0-.22,0-.45-.01-.67-.32-9.38-7.9-17.06-17.27-17.49-5.01-.23-9.77,1.54-13.39,5-3.62,3.46-5.61,8.12-5.61,13.12H3.6c0-6.24,2.48-12.04,7-16.35,4.51-4.31,10.43-6.52,16.68-6.23,10.05.46,18.45,7.62,20.85,17.06C56.73,19.61,82.06,0,111.98,0s53.31,18.15,62.8,43.62c1.19-2.89,2.98-5.54,5.32-7.77,4.51-4.31,10.43-6.52,16.68-6.23,5.91.27,11.25,2.86,15.13,6.86h48.27l-14.36,19.54c13.29,2.11,23.33,14.12,22.29,28.21Zm-219.3,5.13c-2.48-6.99-3.83-14.52-3.83-22.36,0-1.18.03-2.36.09-3.53-1.08,1.48-2.37,2.82-3.85,3.97l-28.19,21.92h35.78Zm130.16-22.36c0,7.88-1.37,15.44-3.87,22.47l32.87-25.55c3.67-2.85,5.86-7.21,5.87-11.67,0-.22,0-.45-.01-.68-.32-9.38-7.9-17.06-17.27-17.49-5.01-.23-9.77,1.54-13.39,5-3.62,3.46-5.61,8.12-5.61,13.12h-.24c1.07,4.76,1.64,9.71,1.64,14.8Zm84.74,15.23c0-12.17-9.9-22.07-22.07-22.07h-4.41l14.12-19.21h-36.07c1.8,3.11,2.89,6.68,3.02,10.47,0,.28.01.56.01.84-.01,5.82-2.85,11.5-7.6,15.19l-28.19,21.92h33.57c-.63-2.27-.98-4.66-.98-7.13h4.47c0,12.17,9.9,22.07,22.07,22.07s22.07-9.9,22.07-22.07Z"/>
  </g>
</svg>